<svg width="512" height="512" viewBox="0 0 512 512" xmlns="http://www.w3.org/2000/svg" version="1.1">
  <path fill="#366" d="M489.2,38.7L489.2,38.7c-2.2-6.2-6.6-11-12.1-13.4c-79.5-33.6-361.6-34-442.1,0c-5.6,2.4-10,7.2-12.1,13.4 C21.9,41.4,0,105.2,0,226.2S21.9,411,22.8,413.6c2.2,6.2,6.6,11,12.1,13.4c1.8,0.8,44.1,18.2,152,23.7l55,55.3c8,8,20.1,8,28.1,0 l55-55.3c107.8-5.5,150.2-22.9,152-23.7c5.6-2.4,10-7.2,12.1-13.4c0.9-2.7,22.8-66.4,22.8-187.4S490.1,41.4,489.2,38.7z M339.8,89.3 c6.6-6.2,15.2-9.3,25.9-9.3c10.7,0,19.2,3.1,25.7,9.3c6.5,6.2,9.7,14.2,9.7,24.2c0,10.2-3.3,18.3-9.9,24.4 c-6.6,6.1-15.3,9.1-26.3,9.1c-10.7,0-19.2-3-25.5-9.1c-6.3-6.1-9.5-14.2-9.5-24.4C329.9,103.5,333.2,95.4,339.8,89.3z M278.2,325.8 c-8.4,12.7-20.8,22.9-37.1,30.6c-16.3,7.7-35.6,11.6-57.9,11.6c-17.1,0-32.4-2.2-45.6-6.6c-13.3-4.4-23.5-10.4-30.7-18.2 c-7.2-7.7-10.8-16.6-10.8-26.5c0-9.7,3-17.4,9.1-23.1c6.1-5.7,13.7-8.5,22.9-8.5c8.7,0,15.8,2.5,21.4,7.5c5.6,5,8.4,11.3,8.4,18.9 c0,4.5-1.2,8.5-3.7,11.9c-2.5,3.4-6.5,6.7-11.9,9.8c7.9,3.3,17.1,5,27.6,5c16.4,0,29.3-4.7,38.7-14.1c9.4-9.4,14.2-21.1,14.2-35.1 c0-16.1-4.8-28.3-14.3-36.5c-9.6-8.2-22.9-12.3-40-12.3c-7.2,0-14.7,0.7-22.4,2.1c-7.7,1.4-14.3,3.3-19.7,5.7l-14.5-16l12.7-115.3 h82c13.9,0,25.5-0.8,34.6-2.5c9.2-1.7,16.8-4.4,22.7-8.2h8.6c3.2,2.4,5.8,6.1,7.8,11c2,5,3,10.3,3,16c0,10.4-3.9,18.5-11.7,24.2 c-7.8,5.7-17.7,8.5-29.6,8.5c-8.2,0-15.8-0.9-22.9-2.8c-7.1-1.9-15.2-4.7-24.4-8.5c-13.4-5.5-24.5-8.7-33.2-9.6l-8.9,75.5 c18.4-7.8,35.5-11.7,51.4-11.7c17.9,0,33.3,3.3,46.4,9.8c13,6.5,23.1,15.5,30.2,26.9c7.1,11.4,10.6,24.4,10.6,39.2 C290.8,299.3,286.6,313.1,278.2,325.8z M407.4,365.2h-84.2c-5.7-5.5-8.6-11.9-8.6-19.2c7.5,0,12.9-1.5,16.2-4.4c3.4-3,5-8,5-15.1 V223.1c0-6.6-1.7-11.4-5-14.2c-3.4-2.8-9.9-4.3-19.6-4.3v-15.7c6-3.6,16.1-7.3,30.4-11.2c14.3-3.9,26.4-5.9,36.3-5.9 c5.7,0,9.8,1.2,12.3,3.7c2.5,2.5,3.7,6.7,3.7,12.6v138.5c0,6.9,1.8,11.8,5.4,14.8c3.6,3,9.1,4.4,16.6,4.4 C416,353.3,413.1,359.7,407.4,365.2z"></path>
</svg>
